
        <svg xmlns="http://www.w3.org/2000/svg" xmlns:xlink="http://www.w3.org/1999/xlink" version="1.1" width="3162.3249834803146" 
        height="832.436660539559" viewBox="0 0 3162.3249834803146 832.436660539559">
			<rect fill="white" width="3162.3249834803146" height="832.436660539559"/>
			<g transform="scale(8.116249174015756) translate(10, 10)">
				<defs id="SvgjsDefs2148"></defs><g id="SvgjsG2149" featureKey="symbolFeature-0" transform="matrix(1.1941691440333013,0,0,1.1941691440333013,-11.475984424598103,-27.210997809846774)" fill="#277689"><polygon xmlns="http://www.w3.org/2000/svg" points="45.576,30.947 32.59,30.148 32.59,25.353 45.576,25.353 "></polygon><rect xmlns="http://www.w3.org/2000/svg" x="48.572" y="43.333" width="22.974" height="17.98"></rect><polygon xmlns="http://www.w3.org/2000/svg" points="32.59,36.94 45.576,37.739 45.576,61.313 32.59,61.313 "></polygon><circle xmlns="http://www.w3.org/2000/svg" cx="67.426" cy="87.9" r="4.026"></circle><circle xmlns="http://www.w3.org/2000/svg" cx="25.074" cy="87.9" r="4.026"></circle><path xmlns="http://www.w3.org/2000/svg" d="M77,34.9l-55.5-3.4l-1.5-5c-0.2-0.8-1.4-3.4-7.7-3.7c-2.463-0.153-2.588,1.05-2.588,1.05C9.197,25.663,10.8,25.6,10.8,25.6  c4.4,0,6,1.1,6.2,1.5L29,67l-5.2,8.2c-0.2,0.3-1.2,1.7-0.4,3.2c0.6,1.1,1.8,1.4,3.5,1.4h43.7c0.7,0,1.2,0.8,1.2,1.4  c0,0.8,0.7,1.6,1.5,1.6c0.8,0,1.5-0.9,1.5-1.7c0-2.3-1.9-4.3-4.2-4.3H26.5l5.1-8.1l40.7-1.9c2.1,0,3.7-1.6,4.1-3.9L81.1,39  C81.1,36.7,79.2,34.9,77,34.9z M73.5,62.4c-0.1,0.3-0.3,1.4-1.3,1.4l-40.4,2l-9.4-31.4l54.5,3.2c0.6,0,1.1,0.5,1.2,1L73.5,62.4z"></path></g><g id="SvgjsG2150" featureKey="nameFeature-0" transform="matrix(0.8347929911131273,0,0,0.8347929911131273,100.1735600477335,24.95633998353394)" fill="#A9743A"><path d="M32.813 27.344 c-0.98961 2.3959 -2.3438 4.375 -4.0625 5.9375 c-1.7709 1.6666 -3.8542 2.9688 -6.2501 3.9063 s-5.0781 1.4063 -8.0469 1.4063 l-8.6719 0 l0 -5.9375 l8.5938 0 c1.9791 0 3.776 -0.3125 5.3906 -0.9375 c1.5625 -0.625 2.9166 -1.5104 4.0625 -2.6563 s2.0313 -2.5 2.6563 -4.0625 s0.9375 -3.2813 0.9375 -5.1563 c0 -1.8229 -0.3125 -3.5156 -0.9375 -5.0781 c-0.625 -1.6146 -1.5104 -2.9427 -2.6563 -3.9844 c-1.0416 -1.0938 -2.3958 -1.9791 -4.0624 -2.6563 c-1.6666 -0.625 -3.4635 -0.9375 -5.3906 -0.9375 l-8.5938 0 l0 -5.9375 l8.6719 0 c2.7604 0 5.4166 0.49477 7.9688 1.4844 c2.3959 0.88539 4.5052 2.2135 6.3281 3.9844 c1.7709 1.6146 3.125 3.5938 4.0625 5.9375 c0.98961 2.3959 1.4844 4.8438 1.4844 7.3438 c0 2.7084 -0.49477 5.1563 -1.4844 7.3438 z M70.14099999999999 1.328000000000003 l0 21.25 c0 3.4375 -0.83336 5.9896 -2.5 7.6563 c-0.88539 0.98961 -2.1094 1.7188 -3.6719 2.1875 l0 6.0938 c1.25 -0.15625 2.3438 -0.41664 3.2813 -0.78125 c1.9271 -0.67711 3.5938 -1.6927 5 -3.0469 c1.4063 -1.5104 2.4479 -3.2552 3.125 -5.2343 c0.78125 -2.0313 1.1719 -4.4271 1.1719 -7.1875 l0 -20.938 l-6.4063 0 z M51.938 1.4059999999999988 l0 21.25 c0 3.3334 0.83336 5.8855 2.5 7.6563 c0.98961 0.98961 2.2136 1.6927 3.672 2.1094 l0 6.1719 c-0.88539 -0.10414 -1.9791 -0.36453 -3.2813 -0.78117 c-1.9791 -0.72914 -3.6198 -1.7708 -4.9219 -3.1249 c-1.4584 -1.3541 -2.5261 -3.0729 -3.2032 -5.1563 c-0.72914 -1.875 -1.0938 -4.2709 -1.0938 -7.1875 l0 -20.938 l6.3281 0 z M118.64099999999999 38.5156 l-12.734 -16.25 l-4.4531 4.8438 l9.2969 11.406 l7.8906 0 z M109.969 1.4059999999999988 l-17.734 18.359 l0 -18.359 l-6.4063 0 l0 37.109 l6.4063 0 l0 -8.75 l26.328 -28.359 l-8.5938 0 z M153.703 38.5937 l7.0313 0 l-13.594 -37.266 l-7.1094 0 l7.8906 22.266 z M124.9531 38.5937 l6.875 0 l8.125 -19.844 l-3.3594 -8.9063 z M167.8281 38.5937 l6.4844 0 l0 -19.922 l-6.4844 -9.1406 l0 29.063 z M193.766 1.4059999999999988 l0 25.703 l-18.359 -25.703 l-7.0313 0 l26.406 37.188 l5.3906 0 l0 -37.188 l-6.4063 0 z M237.813 27.344 c-0.98961 2.3959 -2.3438 4.375 -4.0625 5.9375 c-1.7709 1.6666 -3.8542 2.9688 -6.2501 3.9063 s-5.0781 1.4063 -8.0469 1.4063 l-8.6719 0 l0 -5.9375 l8.5938 0 c1.9791 0 3.776 -0.3125 5.3906 -0.9375 c1.5625 -0.625 2.9166 -1.5104 4.0625 -2.6563 s2.0313 -2.5 2.6563 -4.0625 s0.9375 -3.2813 0.9375 -5.1563 c0 -1.8229 -0.3125 -3.5156 -0.9375 -5.0781 c-0.625 -1.6146 -1.5104 -2.9427 -2.6563 -3.9844 c-1.0416 -1.0938 -2.3958 -1.9791 -4.0624 -2.6563 c-1.6666 -0.625 -3.4635 -0.9375 -5.3906 -0.9375 l-8.5938 0 l0 -5.9375 l8.6719 0 c2.7604 0 5.4166 0.49477 7.9688 1.4844 c2.3959 0.88539 4.5052 2.2135 6.3281 3.9844 c1.7709 1.6146 3.125 3.5938 4.0625 5.9375 c0.98961 2.3959 1.4844 4.8438 1.4844 7.3438 c0 2.7084 -0.49477 5.1563 -1.4844 7.3438 z M276.703 38.5937 l7.0313 0 l-13.594 -37.266 l-7.1094 0 l7.8906 22.266 z M247.9531 38.5937 l6.875 0 l8.125 -19.844 l-3.3594 -8.9063 z M322.781 38.5937 l-10.078 -14.063 c1.3541 -0.41664 2.552 -0.91141 3.5937 -1.4843 c1.1459 -0.72914 2.0834 -1.5364 2.8125 -2.4218 c0.83336 -0.98961 1.4323 -2.0573 1.797 -3.2032 c0.46875 -1.25 0.70313 -2.6563 0.70313 -4.2188 c0 -1.8229 -0.3125 -3.4635 -0.9375 -4.9219 c-0.625 -1.4063 -1.5365 -2.6302 -2.7344 -3.6719 c-1.1459 -0.98961 -2.6042 -1.7709 -4.3751 -2.3438 c-1.8229 -0.57289 -3.75 -0.85938 -5.7813 -0.85938 l-16.563 0 l0 5.9375 l16.016 0 c2.4479 0 4.3489 0.52086 5.703 1.5625 s2.0313 2.6041 2.0313 4.6875 c0 1.9271 -0.67711 3.4375 -2.0313 4.5313 c-1.3541 1.1459 -3.2291 1.7188 -5.625 1.7188 l-16.094 0 l0 18.75 l6.4844 0 l0 -12.969 l8.2031 0 l9.1406 12.969 l7.7344 0 l0 0 z"></path></g>
			</g>
		</svg>
	